<?xml version="1.0" encoding="UTF-8"?>
<svg width="800px" height="600px" viewBox="0 0 800 600" version="1.1" xmlns="http://www.w3.org/2000/svg">
    <g stroke="none" stroke-width="1" fill="none" fill-rule="evenodd">
        <!-- Ballot Box -->
        <rect fill="#E3F2FD" x="250" y="200" width="300" height="250" rx="20"/>
        <rect fill="#90CAF9" x="275" y="225" width="250" height="200" rx="10"/>
        
        <!-- Ballot paper being inserted -->
        <g transform="translate(350, 150)">
            <rect fill="#FFFFFF" x="0" y="0" width="100" height="150" rx="5"/>
            <rect fill="#2196F3" x="20" y="30" width="60" height="10" rx="2"/>
            <rect fill="#2196F3" x="20" y="50" width="40" height="10" rx="2"/>
            <rect fill="#2196F3" x="20" y="70" width="50" height="10" rx="2"/>
            <!-- Checkmark -->
            <path d="M25,100 L35,110 L55,90" stroke="#4CAF50" stroke-width="3" stroke-linecap="round"/>
        </g>

        <!-- Decorative elements -->
        <circle fill="#E3F2FD" cx="150" cy="150" r="50"/>
        <circle fill="#E3F2FD" cx="650" cy="450" r="70"/>
        <path d="M700,100 C750,150 750,200 700,250" stroke="#90CAF9" stroke-width="3"/>
        <path d="M100,400 C50,450 50,500 100,550" stroke="#90CAF9" stroke-width="3"/>
    </g>
</svg>
